<svg width="80" height="80" viewBox="0 0 114 114" fill="none" xmlns="http://www.w3.org/2000/svg">
                                <path d="M98.7643 45.2367C102.517 48.9894 102.517 55.0736 98.7643 58.8262C95.0117 62.5789 88.9275 62.5789 85.1748 58.8262C81.4222 55.0736 81.4222 48.9894 85.1748 45.2367C88.9275 41.4841 95.0117 41.4841 98.7643 45.2367" stroke="#262524" stroke-width="3" stroke-linecap="round" stroke-linejoin="round"/>
                                <path d="M67.4624 28.0837C73.2407 33.862 73.2407 43.2305 67.4624 49.0088C61.6841 54.7871 52.3157 54.7871 46.5373 49.0088C40.759 43.2305 40.759 33.862 46.5373 28.0837C52.3156 22.3054 61.6841 22.3054 67.4624 28.0837" stroke="#262524" stroke-width="3" stroke-linecap="round" stroke-linejoin="round"/>
                                <path d="M28.8253 45.2367C32.5779 48.9894 32.5779 55.0736 28.8253 58.8262C25.0726 62.5789 18.9884 62.5789 15.2358 58.8262C11.4831 55.0736 11.4831 48.9894 15.2358 45.2367C18.9884 41.4841 25.0726 41.4841 28.8253 45.2367" stroke="#262524" stroke-width="3" stroke-linecap="round" stroke-linejoin="round"/>
                                <path d="M109.25 90.25V85.044C109.25 78.4843 103.935 73.169 97.3751 73.169H93.5703" stroke="#262524" stroke-width="3" stroke-linecap="round" stroke-linejoin="round"/>
                                <path d="M4.75 90.25V85.044C4.75 78.4843 10.0652 73.169 16.625 73.169H20.4298" stroke="#262524" stroke-width="3" stroke-linecap="round" stroke-linejoin="round"/>
                                <path d="M82.3603 90.25V82.6453C82.3603 73.4635 74.917 66.0203 65.7353 66.0203H48.26C39.0783 66.0203 31.635 73.4635 31.635 82.6453V90.25" stroke="#262524" stroke-width="3" stroke-linecap="round" stroke-linejoin="round"/>
                            </svg>