<svg width="80" height="80" viewBox="0 0 114 114" fill="none" xmlns="http://www.w3.org/2000/svg">
                                <path d="M72.7653 49.1245L53.0623 68.8275L41.2395 57.0048" stroke="#262524" stroke-width="3" stroke-linecap="round" stroke-linejoin="round"/>
                                <path fill-rule="evenodd" clip-rule="evenodd" d="M90.725 28.1248C79.0448 27.2033 68.4143 22.553 60.0258 15.3568C58.3063 13.8843 55.689 13.8843 53.9742 15.3568C45.5857 22.5483 34.9553 27.2033 23.275 28.1248C20.843 28.3148 19 30.3953 19 32.832V53.3995C19 74.1427 33.991 93.594 54.5205 99.4032C56.1308 99.8592 57.874 99.8592 59.4842 99.4032C80.009 93.5892 95 74.1475 95 53.4043V32.8368C95 30.3953 93.157 28.3148 90.725 28.1248Z" stroke="#262524" stroke-width="3" stroke-linecap="round" stroke-linejoin="round"/>
                            </svg>