<svg width="80" height="80" viewBox="0 0 114 114" fill="none" xmlns="http://www.w3.org/2000/svg">
                                <path fill-rule="evenodd" clip-rule="evenodd" d="M67.5229 29.63C68.223 28.2111 69.6679 27.3128 71.2501 27.3128C72.8323 27.3128 74.2772 28.2111 74.9773 29.63L77.092 33.9168C77.6972 35.1437 78.8675 35.9942 80.2214 36.191L84.9518 36.8785C86.517 37.1062 87.8173 38.2024 88.3062 39.7066C88.7952 41.2107 88.3881 42.862 87.2559 43.9665L83.8316 47.3065C82.8527 48.2614 82.4061 49.6366 82.6373 50.9844L83.4453 55.6946C83.7126 57.2537 83.0717 58.8293 81.792 59.7592C80.5124 60.689 78.8158 60.8119 77.4155 60.0761L73.1836 57.852C71.9731 57.2158 70.5271 57.2158 69.3166 57.852L65.0846 60.0761C63.6844 60.8119 61.9878 60.689 60.7082 59.7592C59.4285 58.8293 58.7876 57.2537 59.0549 55.6946L59.8629 50.9844C60.0941 49.6366 59.6475 48.2614 58.6686 47.3065L55.2443 43.9665C54.1121 42.862 53.705 41.2107 54.194 39.7066C54.6829 38.2024 55.9832 37.1062 57.5484 36.8785L62.2788 36.191C63.6327 35.9942 64.803 35.1437 65.4082 33.9168L67.5229 29.63Z" stroke="#262524" stroke-width="3" stroke-linecap="round" stroke-linejoin="round"/>
                                <path fill-rule="evenodd" clip-rule="evenodd" d="M75.3697 76H52.25C44.3799 76 38 69.6201 38 61.75V28.5C38 20.6299 44.3799 14.25 52.25 14.25H90.25C98.1201 14.25 104.5 20.6299 104.5 28.5V61.75C104.5 69.6201 98.1201 76 90.25 76V76V83.1205C90.25 84.0372 89.7224 84.872 88.8945 85.2655C88.0666 85.659 87.0861 85.5409 86.3753 84.9621L75.3697 76Z" stroke="#262524" stroke-width="3" stroke-linecap="round" stroke-linejoin="round"/>
                                <path d="M38 47.5H23.75C15.8799 47.5 9.5 53.8799 9.5 61.75V80.75C9.5 88.6201 15.8799 95 23.75 95V102.12C23.75 103.037 24.2775 103.872 25.1055 104.266C25.9334 104.659 26.9139 104.541 27.6247 103.962L38.6303 95H52.25C60.1201 95 66.5 88.6201 66.5 80.75V76" stroke="#262524" stroke-width="3" stroke-linecap="round" stroke-linejoin="round"/>
                            </svg>